<svg width="477" height="367" viewBox="0 0 477 367" fill="none" xmlns="http://www.w3.org/2000/svg">
<g clip-path="url(#clip0_11_63)">
<path opacity="0.1" d="M81.452 54.4521C78.8998 57.5493 77.9171 61.9039 76.8179 65.9978C67.9689 98.9908 46.1629 125.529 21.3297 144.484C10.8133 152.514 -1.98987 163.281 0.310885 177.677C1.54975 185.409 6.98493 191.1 11.0229 197.397C19.4947 210.582 22.2426 228.504 18.2046 244.288C13.6124 262.246 0.776625 279.004 4.74938 297.163C7.19917 308.341 15.5173 316.296 23.514 323.133C35.9896 333.792 48.8627 343.777 62.1332 353.089C71.0288 359.33 80.4926 365.403 90.86 366.195C99.9885 366.893 108.931 363.424 117.598 360.001C125.171 357.006 132.935 353.89 139.05 347.891C143.041 343.974 146.222 338.921 150.656 335.717C161.07 328.191 174.446 332.96 186.388 336.183C214.565 343.746 244.722 340.984 271.534 328.386C312.664 309.058 344.013 268.469 384.243 246.691C401.541 237.325 420.357 231.512 436.374 219.45C445.397 212.582 453.152 204.19 459.288 194.654C471.397 175.973 477.945 152.155 476.055 128.84C474.164 105.525 463.568 83.0578 446.927 69.896C429.113 55.8074 406.613 53.176 386.344 44.7181C365.423 35.9715 346.802 20.9468 326.082 11.5808C309.304 4.01412 291.045 0.300434 272.645 0.712264C254.245 1.12409 236.171 5.65099 219.749 13.9607C197.184 25.3713 174.32 51.993 149.189 54.0143C131.286 55.4115 95.4335 37.4899 81.452 54.4521Z" fill="#F50057"/>
<path d="M404.363 162.341C404.363 162.341 397.582 139.31 405.635 122.362C409.059 115.273 410.092 107.266 408.578 99.5404C407.83 95.8785 406.748 92.2928 405.346 88.8284" stroke="#535461" stroke-width="2" stroke-miterlimit="10"/>
<path d="M410.381 78.1211C410.381 80.9435 405.257 89.1265 405.257 89.1265C405.257 89.1265 400.134 80.9435 400.134 78.1211C400.082 77.4184 400.176 76.7125 400.409 76.0476C400.642 75.3826 401.01 74.773 401.49 74.2566C401.969 73.7403 402.55 73.3285 403.196 73.0469C403.842 72.7652 404.539 72.6199 405.243 72.6199C405.948 72.6199 406.645 72.7652 407.291 73.0469C407.937 73.3285 408.518 73.7403 408.997 74.2566C409.477 74.773 409.845 75.3826 410.078 76.0476C410.311 76.7125 410.405 77.4184 410.353 78.1211H410.381Z" fill="#F50057"/>
<path d="M418.806 93.7514C417.273 96.122 408.518 100.216 408.518 100.216C408.518 100.216 408.676 90.5704 410.208 88.1998C410.988 87.1636 412.131 86.4615 413.408 86.235C414.684 86.0085 415.999 86.2745 417.087 86.9794C418.176 87.6842 418.956 88.7754 419.272 90.033C419.587 91.2907 419.414 92.6211 418.787 93.7561L418.806 93.7514Z" fill="#F50057"/>
<path d="M418.438 120.471C415.918 121.742 406.329 120.862 406.329 120.862C406.329 120.862 411.335 112.614 413.855 111.342C415.05 110.846 416.388 110.821 417.601 111.27C418.813 111.72 419.811 112.612 420.394 113.767C420.976 114.922 421.1 116.254 420.741 117.497C420.382 118.74 419.565 119.8 418.456 120.466L418.438 120.471Z" fill="#F50057"/>
<path d="M413.608 140.642C411.34 142.319 401.718 143.078 401.718 143.078C401.718 143.078 405.257 134.103 407.53 132.422C408.624 131.757 409.927 131.526 411.182 131.774C412.438 132.021 413.555 132.73 414.315 133.761C415.074 134.791 415.42 136.068 415.285 137.341C415.15 138.613 414.543 139.789 413.585 140.637L413.608 140.642Z" fill="#F50057"/>
<path d="M397.806 100.761C399.832 102.726 409.263 104.766 409.263 104.766C409.263 104.766 406.934 95.4 404.927 93.43C404.458 92.9049 403.887 92.482 403.248 92.1875C402.609 91.8931 401.916 91.7334 401.213 91.7184C400.509 91.7035 399.81 91.8336 399.159 92.1007C398.508 92.3677 397.919 92.766 397.429 93.2707C396.939 93.7754 396.558 94.3757 396.31 95.0341C396.062 95.6925 395.952 96.395 395.987 97.0977C396.022 97.8004 396.202 98.4883 396.515 99.1185C396.828 99.7487 397.267 100.308 397.806 100.761Z" fill="#F50057"/>
<path d="M392.454 124.402C394.974 125.673 404.563 124.793 404.563 124.793C404.563 124.793 399.557 116.545 397.037 115.273C395.842 114.777 394.504 114.751 393.292 115.201C392.079 115.651 391.081 116.543 390.498 117.698C389.916 118.853 389.792 120.185 390.151 121.428C390.511 122.67 391.327 123.731 392.436 124.397L392.454 124.402Z" fill="#F50057"/>
<path d="M390.405 148.094C392.673 149.771 402.295 150.53 402.295 150.53C402.295 150.53 398.756 141.555 396.483 139.874C395.95 139.402 395.325 139.047 394.648 138.831C393.97 138.614 393.255 138.541 392.548 138.617C391.841 138.692 391.157 138.913 390.54 139.267C389.923 139.621 389.386 140.099 388.965 140.672C388.543 141.244 388.245 141.898 388.089 142.592C387.934 143.286 387.925 144.005 388.063 144.703C388.2 145.401 388.482 146.062 388.889 146.645C389.296 147.228 389.82 147.72 390.428 148.089L390.405 148.094Z" fill="#F50057"/>
<path opacity="0.1" d="M410.381 78.1211C410.381 80.9435 405.257 89.1265 405.257 89.1265C405.257 89.1265 400.134 80.9435 400.134 78.1211C400.082 77.4184 400.176 76.7125 400.409 76.0476C400.642 75.3826 401.01 74.773 401.49 74.2566C401.969 73.7403 402.55 73.3285 403.196 73.0469C403.842 72.7652 404.539 72.6199 405.243 72.6199C405.948 72.6199 406.645 72.7652 407.291 73.0469C407.937 73.3285 408.518 73.7403 408.997 74.2566C409.477 74.773 409.845 75.3826 410.078 76.0476C410.311 76.7125 410.405 77.4184 410.353 78.1211H410.381Z" fill="#F50057"/>
<path opacity="0.1" d="M418.806 93.7514C417.273 96.122 408.518 100.216 408.518 100.216C408.518 100.216 408.676 90.5704 410.208 88.1998C410.988 87.1636 412.131 86.4615 413.408 86.235C414.684 86.0085 415.999 86.2745 417.087 86.9794C418.176 87.6842 418.956 88.7754 419.272 90.033C419.587 91.2907 419.414 92.6211 418.787 93.7561L418.806 93.7514Z" fill="#F50057"/>
<path opacity="0.1" d="M418.438 120.471C415.918 121.742 406.329 120.862 406.329 120.862C406.329 120.862 411.335 112.614 413.855 111.342C415.05 110.846 416.388 110.821 417.601 111.27C418.813 111.72 419.811 112.612 420.394 113.767C420.976 114.922 421.1 116.254 420.741 117.497C420.382 118.74 419.565 119.8 418.456 120.466L418.438 120.471Z" fill="#F50057"/>
<path opacity="0.1" d="M413.608 140.642C411.34 142.319 401.718 143.078 401.718 143.078C401.718 143.078 405.257 134.103 407.53 132.422C408.624 131.757 409.927 131.526 411.182 131.774C412.438 132.021 413.555 132.73 414.315 133.761C415.074 134.791 415.42 136.068 415.285 137.341C415.15 138.613 414.543 139.789 413.585 140.637L413.608 140.642Z" fill="#F50057"/>
<path opacity="0.1" d="M397.806 100.761C399.832 102.726 409.263 104.766 409.263 104.766C409.263 104.766 406.934 95.4 404.927 93.43C404.458 92.9049 403.887 92.482 403.248 92.1875C402.609 91.8931 401.916 91.7334 401.213 91.7184C400.509 91.7035 399.81 91.8336 399.159 92.1007C398.508 92.3677 397.919 92.766 397.429 93.2707C396.939 93.7754 396.558 94.3757 396.31 95.0341C396.062 95.6925 395.952 96.395 395.987 97.0977C396.022 97.8004 396.202 98.4883 396.515 99.1185C396.828 99.7487 397.267 100.308 397.806 100.761Z" fill="#F50057"/>
<path opacity="0.1" d="M392.454 124.402C394.974 125.673 404.563 124.793 404.563 124.793C404.563 124.793 399.557 116.545 397.037 115.273C395.842 114.777 394.504 114.751 393.292 115.201C392.079 115.651 391.081 116.543 390.498 117.698C389.916 118.853 389.792 120.185 390.151 121.428C390.511 122.67 391.327 123.731 392.436 124.397L392.454 124.402Z" fill="#F50057"/>
<path opacity="0.1" d="M390.405 148.094C392.673 149.771 402.295 150.53 402.295 150.53C402.295 150.53 398.756 141.555 396.483 139.874C395.95 139.402 395.325 139.047 394.648 138.831C393.97 138.614 393.255 138.541 392.548 138.617C391.841 138.692 391.157 138.913 390.54 139.267C389.923 139.621 389.386 140.099 388.965 140.672C388.543 141.244 388.245 141.898 388.089 142.592C387.934 143.286 387.925 144.005 388.063 144.703C388.2 145.401 388.482 146.062 388.889 146.645C389.296 147.228 389.82 147.72 390.428 148.089L390.405 148.094Z" fill="#F50057"/>
<path d="M432.773 199.134C432.773 199.134 425.992 176.103 434.045 159.155C437.47 152.067 438.502 144.059 436.988 136.334C436.24 132.672 435.158 129.086 433.756 125.622" stroke="#535461" stroke-width="2" stroke-miterlimit="10"/>
<path d="M438.791 114.915C438.791 117.737 433.668 125.92 433.668 125.92C433.668 125.92 428.544 117.737 428.544 114.915C428.492 114.212 428.586 113.506 428.819 112.841C429.052 112.176 429.42 111.566 429.9 111.05C430.379 110.534 430.96 110.122 431.606 109.84C432.252 109.559 432.949 109.413 433.654 109.413C434.358 109.413 435.055 109.559 435.701 109.84C436.347 110.122 436.928 110.534 437.408 111.05C437.887 111.566 438.255 112.176 438.488 112.841C438.721 113.506 438.815 114.212 438.763 114.915H438.791Z" fill="#F50057"/>
<path d="M447.216 130.545C445.684 132.915 436.946 137.005 436.946 137.005C436.946 137.005 437.105 127.359 438.637 124.988C438.977 124.373 439.44 123.834 439.997 123.405C440.554 122.977 441.193 122.667 441.875 122.496C442.557 122.325 443.267 122.296 443.961 122.411C444.654 122.526 445.317 122.783 445.907 123.165C446.497 123.547 447.002 124.047 447.391 124.633C447.779 125.218 448.043 125.878 448.166 126.57C448.289 127.262 448.268 127.973 448.104 128.656C447.941 129.34 447.638 129.983 447.216 130.545Z" fill="#F50057"/>
<path d="M446.848 157.264C444.328 158.536 434.739 157.655 434.739 157.655C434.739 157.655 439.745 149.407 442.265 148.136C442.869 147.773 443.541 147.539 444.24 147.448C444.939 147.357 445.649 147.411 446.325 147.606C447.002 147.802 447.631 148.135 448.174 148.585C448.716 149.035 449.159 149.592 449.477 150.221C449.794 150.85 449.978 151.538 450.017 152.241C450.057 152.945 449.951 153.649 449.706 154.309C449.461 154.97 449.082 155.573 448.594 156.08C448.105 156.588 447.517 156.989 446.867 157.259L446.848 157.264Z" fill="#F50057"/>
<path d="M442.018 177.435C439.75 179.112 430.128 179.871 430.128 179.871C430.128 179.871 433.668 170.896 435.94 169.215C437.034 168.551 438.337 168.319 439.593 168.567C440.848 168.815 441.966 169.524 442.725 170.554C443.484 171.584 443.83 172.861 443.695 174.134C443.56 175.407 442.954 176.583 441.995 177.431L442.018 177.435Z" fill="#F50057"/>
<path d="M426.216 137.554C428.242 139.52 437.673 141.559 437.673 141.559C437.673 141.559 435.344 132.193 433.337 130.223C432.346 129.389 431.075 128.962 429.781 129.027C428.488 129.092 427.267 129.645 426.364 130.574C425.461 131.503 424.944 132.74 424.917 134.035C424.889 135.33 425.353 136.587 426.216 137.554Z" fill="#F50057"/>
<path d="M420.864 161.195C423.384 162.467 432.974 161.586 432.974 161.586C432.974 161.586 427.967 153.338 425.447 152.067C424.253 151.571 422.915 151.545 421.702 151.995C420.489 152.444 419.491 153.336 418.909 154.491C418.326 155.646 418.202 156.979 418.561 158.221C418.921 159.464 419.737 160.525 420.846 161.19L420.864 161.195Z" fill="#F50057"/>
<path d="M418.815 184.887C421.083 186.564 430.705 187.323 430.705 187.323C430.705 187.323 427.166 178.348 424.893 176.667C424.36 176.196 423.735 175.841 423.058 175.624C422.38 175.408 421.665 175.335 420.958 175.41C420.251 175.485 419.567 175.707 418.95 176.06C418.333 176.414 417.797 176.893 417.375 177.465C416.953 178.038 416.655 178.692 416.499 179.386C416.344 180.08 416.335 180.799 416.473 181.496C416.61 182.194 416.892 182.856 417.299 183.439C417.706 184.022 418.231 184.513 418.838 184.883L418.815 184.887Z" fill="#F50057"/>
<path opacity="0.1" d="M438.791 114.915C438.791 117.737 433.668 125.92 433.668 125.92C433.668 125.92 428.544 117.737 428.544 114.915C428.492 114.212 428.586 113.506 428.819 112.841C429.052 112.176 429.42 111.566 429.9 111.05C430.379 110.534 430.96 110.122 431.606 109.84C432.252 109.559 432.949 109.413 433.654 109.413C434.358 109.413 435.055 109.559 435.701 109.84C436.347 110.122 436.928 110.534 437.408 111.05C437.887 111.566 438.255 112.176 438.488 112.841C438.721 113.506 438.815 114.212 438.763 114.915H438.791Z" fill="#F50057"/>
<path opacity="0.1" d="M447.216 130.545C445.684 132.915 436.946 137.005 436.946 137.005C436.946 137.005 437.105 127.359 438.637 124.988C438.977 124.373 439.44 123.834 439.997 123.405C440.554 122.977 441.193 122.667 441.875 122.496C442.557 122.325 443.267 122.296 443.961 122.411C444.654 122.526 445.317 122.783 445.907 123.165C446.497 123.547 447.002 124.047 447.391 124.633C447.779 125.218 448.043 125.878 448.166 126.57C448.289 127.262 448.268 127.973 448.104 128.656C447.941 129.34 447.638 129.983 447.216 130.545Z" fill="#F50057"/>
<path opacity="0.1" d="M446.848 157.264C444.328 158.536 434.739 157.655 434.739 157.655C434.739 157.655 439.745 149.407 442.265 148.136C442.869 147.773 443.541 147.539 444.24 147.448C444.939 147.357 445.649 147.411 446.325 147.606C447.002 147.802 447.631 148.135 448.174 148.585C448.716 149.035 449.159 149.592 449.477 150.221C449.794 150.85 449.978 151.538 450.017 152.241C450.057 152.945 449.951 153.649 449.706 154.309C449.461 154.97 449.082 155.573 448.594 156.08C448.105 156.588 447.517 156.989 446.867 157.259L446.848 157.264Z" fill="#F50057"/>
<path opacity="0.1" d="M442.018 177.435C439.75 179.112 430.128 179.871 430.128 179.871C430.128 179.871 433.668 170.896 435.94 169.215C437.034 168.551 438.337 168.319 439.593 168.567C440.848 168.815 441.966 169.524 442.725 170.554C443.484 171.584 443.83 172.861 443.695 174.134C443.56 175.407 442.954 176.583 441.995 177.431L442.018 177.435Z" fill="#F50057"/>
<path opacity="0.1" d="M426.216 137.554C428.242 139.52 437.673 141.559 437.673 141.559C437.673 141.559 435.344 132.193 433.337 130.223C432.346 129.389 431.075 128.962 429.781 129.027C428.488 129.092 427.267 129.645 426.364 130.574C425.461 131.503 424.944 132.74 424.917 134.035C424.889 135.33 425.353 136.587 426.216 137.554Z" fill="#F50057"/>
<path opacity="0.1" d="M420.864 161.195C423.384 162.467 432.974 161.586 432.974 161.586C432.974 161.586 427.967 153.338 425.447 152.067C424.253 151.571 422.915 151.545 421.702 151.995C420.489 152.444 419.491 153.336 418.909 154.491C418.326 155.646 418.202 156.979 418.561 158.221C418.921 159.464 419.737 160.525 420.846 161.19L420.864 161.195Z" fill="#F50057"/>
<path opacity="0.1" d="M418.815 184.887C421.083 186.564 430.705 187.323 430.705 187.323C430.705 187.323 427.166 178.348 424.893 176.667C424.36 176.196 423.735 175.841 423.058 175.624C422.38 175.408 421.665 175.335 420.958 175.41C420.251 175.485 419.567 175.707 418.95 176.06C418.333 176.414 417.797 176.893 417.375 177.465C416.953 178.038 416.655 178.692 416.499 179.386C416.344 180.08 416.335 180.799 416.473 181.496C416.61 182.194 416.892 182.856 417.299 183.439C417.706 184.022 418.231 184.513 418.838 184.883L418.815 184.887Z" fill="#F50057"/>
<path opacity="0.1" d="M251.514 276.135C378.017 263.798 478.958 237.29 476.972 216.927C474.986 196.564 370.825 190.058 244.322 202.395C117.819 214.732 16.8783 241.24 18.8641 261.603C20.8499 281.966 125.011 288.472 251.514 276.135Z" fill="#F50057"/>
<path d="M457.038 220.172C465.65 202.52 463.871 173.789 462.953 164.036C462.753 161.903 462.595 160.678 462.595 160.678C462.595 160.678 455.003 159.481 457.802 150.292C459.171 145.793 454.309 143.306 449 141.941C445.203 141.034 441.33 140.486 437.431 140.307L363.895 135.766C353.812 119.763 333.971 122.334 333.971 122.334C333.971 122.334 316.273 120.494 303.726 120.303C301.822 118.625 299.735 117.168 297.504 115.958C296.175 115.159 294.759 114.514 293.284 114.034C291.491 113.517 289.602 113.426 287.768 113.77C285.934 114.114 284.205 114.882 282.721 116.014C281.998 116.534 281.409 117.219 281.003 118.012C280.846 118.372 280.729 118.749 280.654 119.134C280.464 119.792 280.309 120.459 280.188 121.132C280.079 121.456 279.922 121.762 279.722 122.04C279.219 122.753 278.353 123.289 278.241 124.15C278.238 124.2 278.238 124.25 278.241 124.299C278.149 124.464 278.087 124.644 278.059 124.83C278.026 125.214 278.108 125.598 278.297 125.934C278.325 125.99 278.357 126.041 278.39 126.092C277.771 126.989 277.265 127.959 276.886 128.98C276.713 129.074 276.547 129.178 276.387 129.292L276.248 129.394V129.678L276.168 129.739L275.996 134.327L276.094 134.401C276.235 136.541 276.881 138.617 277.978 140.46C279.076 142.302 280.594 143.859 282.409 145.001C282.47 145.295 282.526 145.593 282.582 145.905C282.837 147.409 282.953 148.934 282.926 150.46H282.847C280.658 149.528 276.914 150.898 273.695 152.495H232.002C240.134 142.035 250.082 133.921 250.082 133.921V124.728C242.975 124.374 180.538 154.367 166.85 160.99L166.245 161.284L95.8946 163.463C83.152 163.384 72.0115 165.256 62.3614 168.307C46.2355 173.372 31.7444 182.63 20.3703 195.133C12.0615 204.253 8.41943 211.788 8.41943 211.788L8.49861 212.422L8.41943 212.585L8.53121 212.683L10.4268 227.642L11.7308 237.935C2.66755 243.794 14.4088 246.141 14.4088 246.141C25.5866 255.726 43.5688 255.33 43.5688 255.33C47.9607 261.324 60.7453 260.523 60.7453 260.523H127.854C128.899 254.362 130.298 248.266 132.045 242.266C134.91 262.894 151.187 278.696 170.832 278.696C172.289 278.696 173.745 278.607 175.191 278.431C176.638 278.607 178.094 278.696 179.551 278.696C199.424 278.696 215.846 262.521 218.431 241.549H221.714C221.101 246.235 220.036 250.85 218.533 255.33C278.851 237.753 391.099 229.365 391.099 229.365C391.565 224.941 392.077 220.665 392.631 216.562C397.256 228.043 407.74 236.058 419.942 236.058C421.051 236.056 422.158 235.988 423.258 235.853C424.358 235.988 425.466 236.056 426.574 236.058C441.064 236.058 453.121 224.755 455.841 209.767C456.202 212.412 456.407 215.076 456.456 217.745C455.939 220.288 455.487 221.914 455.427 222.142C455.79 221.477 456.135 220.797 456.461 220.102C456.461 220.372 456.461 220.651 456.461 220.931C456.349 221.397 456.27 221.657 456.247 221.746L456.452 221.364C456.452 221.569 456.452 221.769 456.452 221.974C456.405 221.993 456.652 221.322 457.038 220.172Z" fill="url(#paint0_linear_11_63)"/>
<path d="M450.001 156.747H311.723V212.529H450.001V156.747Z" fill="#6F7D95"/>
<path d="M276.564 130.624L296.204 174.622L335.098 172.266L336.668 154.195L337.846 132.981L282.852 129.05L276.564 130.624Z" fill="#4B5C7A"/>
<path d="M276.564 130.624C276.564 130.624 284.016 123.554 293.065 121.98C302.115 120.406 332.351 123.549 332.351 123.549L336.673 131.001L335.862 134.55L276.564 130.624Z" fill="#FF4D52"/>
<path d="M350.612 153.212H211.156V194.067H350.612V153.212Z" fill="#4B5C7A"/>
<path d="M316.301 181.008C319.985 168.689 312.64 160.594 312.64 160.594L300.466 152.099C300.456 152.128 300.443 152.156 300.429 152.183C298.845 150.327 297.712 148.131 297.117 145.765C297.08 145.616 297.048 145.462 297.01 145.299C298.123 144.473 299.098 143.474 299.898 142.342C301.882 141.126 302.767 139.17 303.102 137.219C304.378 135.325 305.395 133.268 306.125 131.104C306.245 130.754 306.348 130.398 306.432 130.037C306.667 129.366 306.771 128.656 306.74 127.946C306.64 127.155 306.377 126.394 305.966 125.71C303.917 121.984 300.229 119.39 296.489 117.276C295.181 116.491 293.789 115.856 292.339 115.385C290.576 114.877 288.718 114.788 286.915 115.126C285.111 115.464 283.412 116.219 281.953 117.332C281.241 117.843 280.662 118.517 280.262 119.297C280.108 119.652 279.993 120.022 279.918 120.401C279.737 121.048 279.589 121.704 279.475 122.366C279.374 122.683 279.226 122.983 279.037 123.256C278.539 123.955 277.691 124.481 277.58 125.333C277.577 125.383 277.577 125.433 277.58 125.482C277.49 125.644 277.43 125.821 277.403 126.004C277.368 126.381 277.449 126.759 277.635 127.089C277.663 127.145 277.696 127.196 277.729 127.247C277.119 128.129 276.622 129.084 276.248 130.088C276.077 130.181 275.912 130.283 275.754 130.396L275.619 130.494V130.773L275.54 130.834L275.367 135.347L275.46 135.421C275.598 137.526 276.232 139.569 277.311 141.381C278.391 143.194 279.884 144.725 281.669 145.849C281.729 146.138 281.785 146.431 281.836 146.739C282.118 148.364 282.23 150.013 282.172 151.661C282.153 151.519 282.153 151.375 282.172 151.233C278.804 149.71 271.46 153.92 268.502 155.783C268.054 155.996 267.636 156.267 267.259 156.589L267.208 156.626C265.172 158.275 261.153 162.858 257.963 174.636C253.538 191.072 253.999 194.798 250.776 198.608C247.553 202.418 244.354 229.258 244.354 229.258L250.842 231.005L251.671 228.341C259.383 235.373 280.979 238.759 280.979 238.759L281.641 236.705C284.952 237.898 290.49 236.086 290.49 236.086C298.584 233.226 301.616 225.97 307.489 216.399C313.362 206.828 316.301 181.008 316.301 181.008ZM283.653 230.53L298.603 184.156C299.958 191.356 293.978 202.697 293.447 210.112C293.117 214.881 287.565 224.359 283.653 230.53Z" fill="url(#paint1_linear_11_63)"/>
<path d="M302.357 132.212C302.357 132.212 304.96 142.128 297.234 143.855C289.507 145.583 294.598 139.398 294.598 139.398L302.05 132.137L302.357 132.212Z" fill="#472727"/>
<path d="M270.053 155.844C270.053 155.844 264.306 158.172 260.082 173.859C255.858 189.545 256.277 193.084 253.235 196.731C250.194 200.378 247.078 225.965 247.078 225.965L253.161 227.605L258.456 210.503L273.02 165.326L270.053 155.844Z" fill="#DDE0E4"/>
<path opacity="0.05" d="M270.053 155.844C270.053 155.844 264.306 158.172 260.082 173.859C255.858 189.545 256.277 193.084 253.235 196.731C250.194 200.378 247.078 225.965 247.078 225.965L253.161 227.605L258.456 210.503L273.02 165.326L270.053 155.844Z" fill="black"/>
<path d="M301.966 154.074C301.966 154.074 277.906 166.304 281.427 158.326C283.168 154.386 283.103 150.301 282.596 147.148C282.306 145.291 281.798 143.474 281.082 141.736C281.082 141.736 297.439 128.798 296.479 139.361C296.25 141.635 296.407 143.931 296.945 146.152C298.361 151.754 301.966 154.074 301.966 154.074Z" fill="#DB8B8B"/>
<path opacity="0.1" d="M296.945 146.17C295.398 147.413 293.578 148.272 291.636 148.677C289.693 149.081 287.682 149.02 285.767 148.499C284.647 148.198 283.574 147.745 282.577 147.153C282.287 145.296 281.779 143.479 281.063 141.741C281.063 141.741 297.42 128.803 296.461 139.366C296.235 141.645 296.399 143.946 296.945 146.17Z" fill="black"/>
<path d="M301.394 138.988C303.202 132.272 299.224 125.361 292.508 123.553C285.792 121.745 278.881 125.723 277.073 132.439C275.265 139.155 279.243 146.066 285.959 147.874C292.675 149.682 299.586 145.704 301.394 138.988Z" fill="#DB8B8B"/>
<path opacity="0.1" d="M282.908 129.571C282.562 129.782 282.178 129.921 281.777 129.98C281.376 130.039 280.968 130.016 280.577 129.913C280.185 129.81 279.818 129.629 279.499 129.38C279.179 129.132 278.913 128.821 278.716 128.468C278.543 128.152 278.469 127.792 278.502 127.434C278.609 126.623 279.41 126.12 279.899 125.45C280.658 124.364 280.514 122.879 281.063 121.672C281.442 120.936 281.987 120.298 282.656 119.809C284.017 118.745 285.611 118.019 287.307 117.688C289.003 117.358 290.752 117.434 292.413 117.909C293.772 118.353 295.076 118.951 296.298 119.693C299.8 121.691 303.251 124.136 305.147 127.69C305.531 128.342 305.775 129.067 305.864 129.818C305.885 130.63 305.742 131.438 305.445 132.193C304.744 134.281 303.769 136.265 302.543 138.094C302.133 137.585 301.619 137.171 301.034 136.879C300.739 136.739 300.408 136.696 300.087 136.756C299.766 136.815 299.472 136.974 299.246 137.209C298.841 137.726 298.594 138.714 297.979 138.481C297.578 138.332 297.583 137.778 297.602 137.349C297.686 135.486 296.67 133.73 295.306 132.473C293.941 131.215 292.25 130.386 290.583 129.571C289.386 128.984 287.789 127.639 286.475 127.401C284.845 127.098 284.077 128.849 282.908 129.571Z" fill="black"/>
<path d="M283.08 128.933C282.734 129.144 282.35 129.284 281.949 129.342C281.549 129.401 281.14 129.378 280.749 129.275C280.357 129.172 279.991 128.991 279.671 128.742C279.351 128.494 279.085 128.183 278.888 127.83C278.716 127.514 278.641 127.154 278.674 126.796C278.781 125.985 279.582 125.482 280.071 124.812C280.83 123.726 280.686 122.241 281.236 121.034C281.614 120.298 282.159 119.66 282.828 119.171C284.19 118.107 285.783 117.381 287.479 117.05C289.175 116.72 290.925 116.796 292.586 117.271C293.945 117.715 295.248 118.313 296.47 119.055C299.972 121.053 303.423 123.498 305.319 127.052C305.703 127.704 305.947 128.429 306.036 129.18C306.057 129.992 305.915 130.8 305.617 131.555C304.917 133.643 303.941 135.627 302.716 137.456C302.306 136.947 301.791 136.533 301.207 136.241C300.911 136.101 300.58 136.058 300.259 136.118C299.938 136.177 299.644 136.336 299.418 136.572C299.013 137.088 298.766 138.076 298.151 137.843C297.751 137.694 297.755 137.14 297.774 136.711C297.858 134.848 296.843 133.092 295.478 131.835C294.113 130.577 292.423 129.748 290.755 128.933C289.558 128.347 287.961 127.001 286.648 126.763C285.017 126.456 284.249 128.211 283.08 128.933Z" fill="#472727"/>
<path d="M289.675 155.741C289.675 155.741 299.637 153.79 300.07 152.192L311.462 160.236C311.462 160.236 318.318 167.916 314.811 179.671C314.811 179.671 311.956 204.304 306.404 213.446C300.853 222.589 297.662 234.433 290.057 237.199C290.057 237.199 282.745 232.486 280.332 232.542C280.332 232.542 292.716 214.597 293.247 207.532C293.778 200.466 299.437 189.633 298.198 182.777L281.431 234.894C281.431 234.894 254.418 230.702 251.68 221.737C251.68 221.737 254.009 218.239 253.575 214.695C253.142 211.15 263.766 184.487 263.766 184.487L268.852 156.682C268.852 156.682 278.912 149.654 282.917 151.48C282.898 151.452 282.172 154.922 289.675 155.741Z" fill="#DDE0E4"/>
<g opacity="0.1">
<path d="M293.303 134.122C290.844 130.768 286.154 133.521 285.385 134.001L284.179 133.879C283.127 132.734 279.899 129.688 276.867 131.928L276.737 132.026L276.555 136.325L276.685 136.427C277.561 137.103 278.554 137.612 279.615 137.927C280.286 138.124 280.995 138.159 281.683 138.029C282.192 137.912 282.668 137.684 283.08 137.362C283.491 137.04 283.827 136.632 284.063 136.166L284.691 136.208L285.157 136.12C285.25 136.615 285.448 137.085 285.737 137.497C286.026 137.91 286.4 138.257 286.834 138.514C288.916 139.692 291.957 138.514 292.083 138.49L292.241 138.43L293.359 134.271L293.303 134.122ZM291.724 137.903C291.105 138.113 288.767 138.802 287.197 137.903C286.806 137.658 286.477 137.327 286.235 136.934C285.992 136.542 285.844 136.099 285.8 135.64L285.744 135.3L284.724 135.51L283.699 135.472L283.602 135.668C283.415 136.091 283.133 136.465 282.779 136.763C282.424 137.06 282.006 137.272 281.557 137.382C279.801 137.759 277.771 136.399 277.24 136.013L277.393 132.38C280.029 130.605 282.936 133.484 283.774 134.424L283.862 134.522L285.562 134.69L285.665 134.62C285.711 134.592 289.936 131.756 292.344 134.038C292.463 134.148 292.574 134.268 292.674 134.396L291.724 137.903Z" fill="black"/>
<path d="M300.932 136.283L293.014 135.626L292.362 135.5L292.656 134.401C292.555 134.273 292.444 134.153 292.325 134.042L293.284 134.136L299.763 134.769L300.932 136.283Z" fill="black"/>
</g>
<path d="M293.387 133.824C290.928 130.47 286.238 133.223 285.469 133.702L284.263 133.581C283.21 132.436 279.983 129.39 276.951 131.63L276.82 131.728L276.639 136.026L276.769 136.129C277.645 136.805 278.638 137.313 279.699 137.629C280.37 137.826 281.079 137.861 281.767 137.731C282.275 137.614 282.752 137.386 283.164 137.064C283.575 136.742 283.91 136.334 284.147 135.868L284.775 135.91L285.241 135.822C285.334 136.317 285.532 136.787 285.821 137.199C286.11 137.612 286.484 137.959 286.918 138.215C288.999 139.394 292.041 138.215 292.167 138.192L292.325 138.132L293.443 133.973L293.387 133.824ZM291.808 137.605C291.188 137.815 288.85 138.504 287.281 137.605C286.89 137.36 286.561 137.029 286.319 136.636C286.076 136.244 285.928 135.801 285.884 135.342L285.828 135.002L284.808 135.211L283.797 135.146L283.699 135.342C283.516 135.767 283.237 136.145 282.884 136.445C282.531 136.746 282.113 136.961 281.664 137.074C279.908 137.452 277.878 136.092 277.347 135.705L277.5 132.072C280.136 130.298 283.043 133.176 283.881 134.117L283.97 134.215L285.669 134.382L285.772 134.313C285.819 134.285 290.043 131.448 292.451 133.73C292.57 133.841 292.681 133.961 292.781 134.089L291.808 137.605Z" fill="#472727"/>
<path d="M301.006 135.985L293.117 135.328L292.465 135.202L292.758 134.103C292.657 133.975 292.547 133.855 292.427 133.744L293.387 133.838L299.865 134.471L301.006 135.985Z" fill="#472727"/>
<path d="M246.901 185.031H108.623V240.813H246.901V185.031Z" fill="#6F7D95"/>
<path d="M171.908 277.346C193.219 277.346 210.494 258.439 210.494 235.117C210.494 211.795 193.219 192.889 171.908 192.889C150.597 192.889 133.321 211.795 133.321 235.117C133.321 258.439 150.597 277.346 171.908 277.346Z" fill="#4B5C7A"/>
<path opacity="0.05" d="M171.908 277.346C193.219 277.346 210.494 258.439 210.494 235.117C210.494 211.795 193.219 192.889 171.908 192.889C150.597 192.889 133.321 211.795 133.321 235.117C133.321 258.439 150.597 277.346 171.908 277.346Z" fill="black"/>
<path d="M180.482 277.346C201.793 277.346 219.069 258.439 219.069 235.117C219.069 211.795 201.793 192.889 180.482 192.889C159.172 192.889 141.896 211.795 141.896 235.117C141.896 258.439 159.172 277.346 180.482 277.346Z" fill="#4B5C7A"/>
<path opacity="0.05" d="M179.625 252.48C189.096 252.48 196.774 244.802 196.774 235.331C196.774 225.861 189.096 218.183 179.625 218.183C170.154 218.183 162.477 225.861 162.477 235.331C162.477 244.802 170.154 252.48 179.625 252.48Z" fill="black"/>
<path d="M179.625 240.478C182.468 240.478 184.772 238.174 184.772 235.331C184.772 232.489 182.468 230.185 179.625 230.185C176.783 230.185 174.479 232.489 174.479 235.331C174.479 238.174 176.783 240.478 179.625 240.478Z" stroke="#6F7D95" stroke-width="2" stroke-miterlimit="10"/>
<path d="M179.625 227.614C180.335 227.614 180.911 227.039 180.911 226.329C180.911 225.619 180.335 225.043 179.625 225.043C178.915 225.043 178.34 225.619 178.34 226.329C178.34 227.039 178.915 227.614 179.625 227.614Z" fill="#6F7D95"/>
<path d="M187.486 229.796C188.029 229.339 188.1 228.529 187.644 227.985C187.188 227.441 186.377 227.37 185.833 227.826C185.289 228.283 185.218 229.093 185.675 229.637C186.131 230.181 186.942 230.252 187.486 229.796Z" fill="#6F7D95"/>
<path d="M190.555 236.02C190.678 235.321 190.211 234.655 189.512 234.531C188.813 234.408 188.146 234.875 188.023 235.574C187.9 236.273 188.366 236.94 189.066 237.063C189.765 237.186 190.431 236.72 190.555 236.02Z" fill="#6F7D95"/>
<path d="M186.257 243.414C186.872 243.059 187.082 242.273 186.727 241.658C186.372 241.043 185.586 240.832 184.971 241.187C184.356 241.542 184.146 242.328 184.501 242.943C184.856 243.558 185.642 243.769 186.257 243.414Z" fill="#6F7D95"/>
<path d="M179.489 244.11C179.732 243.442 179.388 242.705 178.721 242.462C178.053 242.219 177.316 242.563 177.073 243.23C176.83 243.897 177.174 244.635 177.841 244.878C178.508 245.121 179.246 244.777 179.489 244.11Z" fill="#6F7D95"/>
<path d="M172.955 240.14C173.622 239.897 173.966 239.159 173.723 238.492C173.48 237.825 172.743 237.481 172.075 237.724C171.408 237.967 171.064 238.704 171.307 239.371C171.55 240.039 172.288 240.383 172.955 240.14Z" fill="#6F7D95"/>
<path d="M173.554 232.109C173.909 231.494 173.699 230.708 173.084 230.353C172.469 229.998 171.683 230.209 171.328 230.824C170.973 231.439 171.184 232.225 171.798 232.58C172.413 232.935 173.199 232.724 173.554 232.109Z" fill="#6F7D95"/>
<path d="M457.742 202.483C456.424 211.584 452.758 221.546 452.758 221.546C452.783 220.925 452.799 220.311 452.805 219.706C452.805 218.924 452.805 218.15 452.805 217.377C452.339 192.293 438.67 176.816 429.853 169.406C427.562 167.454 425.097 165.714 422.49 164.208H446.452C446.452 164.208 455.879 183.458 457.844 192.884C458.412 195.529 458.254 198.943 457.742 202.483Z" fill="#FF4D52"/>
<path opacity="0.05" d="M457.742 202.483C456.424 211.584 452.758 221.546 452.758 221.546C452.783 220.925 452.799 220.311 452.805 219.706C452.805 218.924 452.805 218.15 452.805 217.377C452.339 192.293 438.67 176.816 429.853 169.406C427.562 167.454 425.097 165.714 422.49 164.208H446.452C446.452 164.208 455.879 183.458 457.844 192.884C458.412 195.529 458.254 198.943 457.742 202.483Z" fill="black"/>
<path d="M416.887 235.415C433.095 235.415 446.233 221.036 446.233 203.298C446.233 185.56 433.095 171.18 416.887 171.18C400.68 171.18 387.541 185.56 387.541 203.298C387.541 221.036 400.68 235.415 416.887 235.415Z" fill="#4B5C7A"/>
<path opacity="0.05" d="M416.887 235.415C433.095 235.415 446.233 221.036 446.233 203.298C446.233 185.56 433.095 171.18 416.887 171.18C400.68 171.18 387.541 185.56 387.541 203.298C387.541 221.036 400.68 235.415 416.887 235.415Z" fill="black"/>
<path d="M423.407 235.415C439.615 235.415 452.754 221.036 452.754 203.298C452.754 185.56 439.615 171.18 423.407 171.18C407.2 171.18 394.061 185.56 394.061 203.298C394.061 221.036 407.2 235.415 423.407 235.415Z" fill="#4B5C7A"/>
<path opacity="0.05" d="M422.755 216.502C429.957 216.502 435.796 210.663 435.796 203.461C435.796 196.259 429.957 190.42 422.755 190.42C415.553 190.42 409.715 196.259 409.715 203.461C409.715 210.663 415.553 216.502 422.755 216.502Z" fill="black"/>
<path d="M422.755 207.373C424.916 207.373 426.667 205.622 426.667 203.461C426.667 201.3 424.916 199.549 422.755 199.549C420.595 199.549 418.843 201.3 418.843 203.461C418.843 205.622 420.595 207.373 422.755 207.373Z" stroke="#6F7D95" stroke-width="2" stroke-miterlimit="10"/>
<path d="M422.755 197.593C423.295 197.593 423.733 197.155 423.733 196.615C423.733 196.074 423.295 195.636 422.755 195.636C422.215 195.636 421.777 196.074 421.777 196.615C421.777 197.155 422.215 197.593 422.755 197.593Z" fill="#6F7D95"/>
<path d="M428.737 199.251C429.15 198.904 429.204 198.287 428.857 197.873C428.51 197.459 427.893 197.405 427.479 197.752C427.066 198.1 427.012 198.717 427.359 199.13C427.706 199.544 428.323 199.598 428.737 199.251Z" fill="#6F7D95"/>
<path d="M431.067 203.989C431.161 203.457 430.806 202.95 430.274 202.856C429.742 202.762 429.235 203.117 429.141 203.649C429.047 204.181 429.402 204.688 429.934 204.782C430.466 204.876 430.973 204.521 431.067 203.989Z" fill="#6F7D95"/>
<path d="M427.803 209.611C428.27 209.341 428.431 208.743 428.161 208.275C427.891 207.807 427.292 207.647 426.825 207.917C426.357 208.187 426.196 208.785 426.467 209.253C426.737 209.721 427.335 209.881 427.803 209.611Z" fill="#6F7D95"/>
<path d="M422.654 210.139C422.839 209.631 422.577 209.07 422.069 208.885C421.562 208.7 421.001 208.962 420.816 209.47C420.631 209.977 420.893 210.538 421.4 210.723C421.908 210.908 422.469 210.646 422.654 210.139Z" fill="#6F7D95"/>
<path d="M417.683 207.115C418.19 206.93 418.452 206.369 418.267 205.862C418.082 205.354 417.521 205.092 417.014 205.277C416.506 205.462 416.244 206.023 416.429 206.531C416.614 207.038 417.175 207.3 417.683 207.115Z" fill="#6F7D95"/>
<path d="M418.144 201.009C418.414 200.541 418.254 199.943 417.786 199.673C417.318 199.403 416.72 199.563 416.45 200.031C416.18 200.499 416.34 201.097 416.808 201.367C417.276 201.637 417.874 201.477 418.144 201.009Z" fill="#6F7D95"/>
<path d="M15.7223 239.439L12.1733 211.546H54.2063L75.812 230.795L65.2071 255.545C65.2071 255.545 22.4196 248.475 15.7223 239.439Z" fill="#FF4D52"/>
<path opacity="0.05" d="M75.8259 230.795L65.221 255.545C65.221 255.545 22.4195 248.475 15.7222 239.439L15.5685 238.224L12.3083 212.431L12.2757 212.175L12.1965 211.551H54.2295L75.8259 230.795Z" fill="black"/>
<path d="M249.854 125.911V134.946C249.854 134.946 228.132 152.644 222.962 169.341C222.06 172.052 221.719 174.919 221.961 177.766C223.926 196.228 165.402 162.834 165.402 162.834L168.005 161.568C181.46 155.08 242.863 125.557 249.854 125.911Z" fill="#7597CE"/>
<path d="M299.353 169.518C299.353 169.518 319.696 159.523 322.961 152.127C323.399 151.135 323.814 150.134 324.298 149.16C326.315 145.104 330.553 135.589 328.42 131.02C325.672 125.128 335.098 131.807 335.098 131.807L329.598 159.691L316.241 167.143L298.957 169.518" fill="#FF4D52"/>
<path opacity="0.05" d="M299.353 169.518C299.353 169.518 319.696 159.523 322.961 152.127C323.399 151.135 323.814 150.134 324.298 149.16C326.315 145.104 330.553 135.589 328.42 131.02C325.672 125.128 335.098 131.807 335.098 131.807L329.598 159.691L316.241 167.143L298.957 169.518" fill="black"/>
<path opacity="0.05" d="M75.8259 230.795L65.221 255.545C65.221 255.545 22.4196 248.475 15.7222 239.439L15.5685 238.224C15.7409 238.107 15.9225 237.986 16.1135 237.87C16.1135 237.87 29.075 248.083 58.5423 250.445C58.5423 250.445 76.2404 236.3 47.5416 220.591C47.5416 220.591 22.5779 221.373 12.2944 212.436L12.1826 212.343L12.2618 212.179C12.3301 212.046 12.4403 211.838 12.5925 211.555H54.2156L75.8259 230.795Z" fill="black"/>
<path opacity="0.05" d="M221.961 177.761C223.926 196.228 165.402 162.834 165.402 162.834L168.005 161.568C169.728 163.403 176.607 169.592 190.361 168.922C199.21 168.489 212.646 168.884 222.986 169.336C222.075 172.046 221.727 174.913 221.961 177.761Z" fill="black"/>
<path opacity="0.05" d="M246.906 185.031V240.813H221.216C222.911 227.838 221.933 208.924 205.455 198.082C199.309 194.064 192.173 191.823 184.834 191.604C177.495 191.386 170.239 193.198 163.865 196.843C153.064 203.009 140.988 215.547 133.312 240.813H108.628V185.031H246.906Z" fill="black"/>
<path opacity="0.05" d="M457.742 202.483C456.773 208.64 455.217 214.62 452.809 219.715C452.499 220.402 452.16 221.071 451.794 221.723C451.855 221.494 452.297 219.902 452.809 217.396C455.306 205.194 459.577 171.427 430.962 169.499C430.589 169.476 430.221 169.453 429.853 169.439C427.563 167.475 425.098 165.724 422.49 164.208H446.452C446.452 164.208 455.879 183.458 457.844 192.884C458.412 195.529 458.254 198.943 457.742 202.483Z" fill="black"/>
<path d="M452.572 221.341C452.944 219.995 466.218 171.446 431.739 169.122C396.776 166.765 392.454 193.084 388.528 228.834C388.528 228.834 278.148 237.083 218.822 254.371C218.822 254.371 233.064 215.342 206.247 197.69C200.101 193.673 192.965 191.432 185.626 191.213C178.287 190.995 171.03 192.807 164.656 196.452C151.429 204.006 136.279 221.136 129.651 259.476H63.6468C63.6468 259.476 51.0718 260.263 46.7544 254.352C46.7544 254.352 29.0563 254.744 18.0789 245.317C18.0789 245.317 6.29565 242.96 15.7222 237.069C15.7222 237.069 29.0796 247.282 58.5423 249.644C58.5423 249.644 76.2404 235.499 47.5415 219.79C47.5415 219.79 22.3916 220.577 12.1873 211.542C12.1873 211.542 15.7688 204.132 23.9425 195.166C35.1222 182.868 49.3672 173.76 65.221 168.773C75.9036 165.47 87.0382 163.864 98.2187 164.013L167.553 161.852C167.553 161.852 174.251 170.496 190.337 169.709C206.424 168.922 237.871 170.887 237.871 170.887H238.183L302.883 167.958C304.741 167.695 306.579 167.306 308.384 166.793C317.764 164.246 335.555 156.519 332.346 134.941L434.091 141.229C437.926 141.405 441.736 141.943 445.469 142.836C450.695 144.177 455.473 146.627 454.127 151.051C451.38 160.087 458.841 161.265 458.841 161.265C458.841 161.265 458.999 162.471 459.195 164.567C460.126 174.45 461.957 204.164 452.572 221.341Z" fill="#FF4D52"/>
<path opacity="0.05" d="M141.43 178.157C141.43 178.157 99.0011 178.548 71.1033 203.307H86.8173C86.8173 203.307 130.816 191.915 141.421 182.88L141.43 178.157Z" fill="black"/>
<path d="M141.034 177.761C141.034 177.761 98.6052 178.153 70.7074 202.911H86.4215C86.4215 202.911 130.42 191.519 141.025 182.484L141.034 177.761Z" fill="#FFEC9F"/>
<path opacity="0.05" d="M65.6122 169.168V179.727L29.8714 196.228L24.3384 195.562C35.5168 183.265 49.7601 174.157 65.6122 169.168Z" fill="black"/>
<path d="M65.2164 168.777V179.336L29.4709 195.832L23.9379 195.166C35.1181 182.87 49.363 173.764 65.2164 168.777Z" fill="#FFEC9F"/>
<path opacity="0.05" d="M115.894 216.655C115.894 216.655 96.6445 228.438 94.6791 254.38H105.68C105.68 254.38 110.002 226.096 122.572 216.655H115.894Z" fill="black"/>
<path opacity="0.05" d="M343.351 217.442L243.567 229.226C243.567 229.226 236.967 187.216 238.187 170.873L302.888 167.944C304.744 167.686 306.58 167.301 308.384 166.793V170.691L357.095 158.908C357.095 158.908 365.348 171.083 343.351 217.442Z" fill="black"/>
<path d="M332.351 123.549C332.351 123.549 353.565 120.801 362.992 138.872L332.653 137.703L332.351 123.549Z" fill="#FF4D52"/>
<path opacity="0.05" d="M361.52 145.206C360.686 147.819 361.315 150.693 366.145 152.681C370.164 154.339 374.877 152.421 376.251 148.299C377.052 145.896 376.503 143.176 372.171 140.963C367.84 138.751 362.978 140.642 361.52 145.206Z" fill="black"/>
<path d="M12.9325 217.433C12.9325 217.433 38.1104 230.474 56.1811 225.537" stroke="#FF4D52" stroke-miterlimit="10"/>
<path d="M13.822 224.475C13.822 224.475 30.0903 237.022 62.9715 234.107" stroke="#FF4D52" stroke-miterlimit="10"/>
<path d="M14.5719 230.385C14.5719 230.385 30.7098 244.39 63.8704 239.952" stroke="#FF4D52" stroke-miterlimit="10"/>
<path opacity="0.05" d="M361.776 136.762C361.776 136.762 348.651 148.094 336.673 153.217C336.673 153.217 354.864 156.454 361.776 136.762Z" fill="black"/>
<path opacity="0.1" d="M222.734 170.114C222.734 170.114 285.013 175.996 308.579 170.496C308.579 170.496 309.837 171.329 302.334 167.967L222.734 170.114Z" fill="black"/>
<path opacity="0.05" d="M459.199 164.567C455.32 162.02 449.167 156.733 450.006 150.851C450.425 147.903 448.338 145.146 445.474 142.831C450.7 144.172 455.478 146.622 454.132 151.047C451.384 160.082 458.846 161.26 458.846 161.26C458.846 161.26 458.999 162.471 459.199 164.567Z" fill="black"/>
<path d="M146.181 205.571C146.218 204.015 146.181 202.399 146.064 200.913C146.064 200.629 146.018 200.354 145.99 200.084C146.865 200.746 147.387 201.249 147.387 201.249L146.618 160.804L142.38 139.617C142.38 124.593 134.29 120.359 134.29 120.359C134.29 120.359 130.052 118.431 128.897 115.739C127.742 113.047 117.505 107.356 117.5 107.356C117.419 106.375 117.388 105.391 117.407 104.407C117.407 104.151 117.407 103.886 117.43 103.62C119.997 101.919 121.858 99.3434 122.67 96.3729C123.481 93.4024 123.186 90.2384 121.841 87.4685C122.409 87.4685 122.87 87.231 123.085 86.388C123.764 83.7193 123.108 79.7 121.562 77.5669C121.231 77.1208 120.858 76.7074 120.448 76.3327C119.969 75.8512 119.463 75.3957 118.935 74.9681C117.612 73.8689 116.14 72.7139 114.501 72.807C113.571 72.9288 112.677 73.2462 111.879 73.7385C107.783 75.8933 103.699 78.0668 99.6252 80.2589C98.1209 81.0739 96.57 81.9309 95.5174 83.3933C94.4648 84.8557 94.041 86.728 93.7476 88.5677C93.5008 89.8141 93.4427 91.0905 93.5752 92.3541C93.6984 93.5041 94.2247 94.5732 95.061 95.3721C95.2296 95.5759 95.4219 95.7588 95.6338 95.917C96.4628 96.5225 97.5294 96.6715 98.3956 97.1606C99.0505 99.0621 100.147 100.781 101.595 102.177C101.595 102.414 101.563 102.642 101.544 102.903C101.493 103.569 101.414 104.3 101.311 105.041C101.311 105.041 98.4655 104.966 94.2273 110.742C89.989 116.517 80.7441 117.29 80.7441 117.29C80.7441 117.29 77.279 115.748 73.4274 133.083C69.5757 150.418 68.4206 161.959 70.3442 163.896C71.161 164.601 72.0815 165.176 73.0734 165.601C76.3385 167.249 79.8518 168.35 83.4733 168.861C83.5195 169 83.5976 169.126 83.7016 169.229L83.9764 172.587C84.2092 179.676 84.4794 193.895 83.0449 197.048C81.1167 201.286 83.4314 203.983 83.4314 203.983L83.8972 203.95C83.9832 204.096 84.0797 204.237 84.1859 204.369L86.0489 204.243C85.9138 212.161 85.5505 223.143 84.5911 225.556C83.0495 229.407 84.5911 250.594 84.5911 250.594L81.8945 288.729C81.8945 288.729 80.4181 308.634 81.8013 310.94C81.0468 315.08 79.6915 322.97 79.971 324.935C80.3576 327.632 89.2159 331.483 89.2159 331.483C89.2159 331.483 99.6159 333.812 104.623 333.025C107.24 332.62 108.279 330.85 108.288 329.299C111.683 329.844 116.103 330.366 118.874 329.937C123.881 329.169 123.112 323.389 120.416 323.775C117.719 324.162 114.636 318.741 112.345 316.044C111.18 314.684 110.211 312.253 109.55 310.171C110.037 310.098 110.484 309.859 110.817 309.496C111.972 307.568 113.9 289.851 113.9 289.851L118.907 259.038C118.907 259.038 121.603 244.013 123.914 240.548C125.66 237.93 127.844 218.397 128.808 208.989H128.892H128.92L129.023 208.659L130.471 203.983C131.244 205.347 133.191 206.023 135.459 206.311C135.217 207.299 135.017 208.104 134.9 208.565C134.323 210.894 142.743 214.727 144.774 212.804C145.626 211.998 146.069 209.078 146.171 205.883H146.241L146.181 205.571ZM95.5733 310.614C95.4429 311.364 95.3125 312.146 95.182 312.942C94.8886 312.011 94.6558 311.173 94.4974 310.553C94.8793 310.567 95.2379 310.586 95.5733 310.614Z" fill="url(#paint2_linear_11_63)"/>
<path d="M108.488 302.584C108.488 302.584 109.974 309.263 112.214 311.857C114.454 314.451 117.407 319.644 120.001 319.276C122.595 318.908 123.341 324.469 118.516 325.21C113.691 325.95 103.677 323.724 103.677 323.724C103.677 323.724 95.1448 319.998 94.7768 317.418C94.4089 314.838 97.0031 301.467 97.0031 301.467L108.488 302.584Z" fill="#53526B"/>
<path opacity="0.05" d="M108.488 302.584C108.488 302.584 109.974 309.263 112.214 311.857C114.454 314.451 117.407 319.644 120.001 319.276C122.595 318.908 123.341 324.469 118.516 325.21C113.691 325.95 103.677 323.724 103.677 323.724C103.677 323.724 95.1448 319.998 94.7768 317.418C94.4089 314.838 97.0031 301.467 97.0031 301.467L108.488 302.584Z" fill="black"/>
<path d="M94.7628 305.551C94.7628 305.551 96.2486 312.23 98.4888 314.824C100.729 317.418 103.682 322.611 106.276 322.243C108.87 321.875 109.615 327.436 104.79 328.177C99.9652 328.917 89.9518 326.696 89.9518 326.696C89.9518 326.696 81.4194 322.97 81.0515 320.39C80.6836 317.809 83.2777 304.438 83.2777 304.438L94.7628 305.551Z" fill="#53526B"/>
<path d="M128.52 203.917C128.52 203.917 125.553 235.816 123.327 239.155C121.1 242.494 118.506 256.96 118.506 256.96L113.686 286.633C113.686 286.633 111.823 303.697 110.719 305.551C109.615 307.405 95.848 306.608 95.848 306.608L104.39 208.37L128.52 203.917Z" fill="#5F5D7E"/>
<path opacity="0.05" d="M128.52 203.917C128.52 203.917 125.553 235.816 123.327 239.155C121.1 242.494 118.506 256.96 118.506 256.96L113.686 286.633C113.686 286.633 111.823 303.697 110.719 305.551C109.615 307.405 95.848 306.608 95.848 306.608L104.39 208.37L128.52 203.917Z" fill="black"/>
<path d="M134.453 188.711L133.484 191.789L128.245 208.421L128.142 208.738H128.115C127.411 208.896 112.563 212.31 109.359 213.358C109.186 213.411 109.017 213.475 108.852 213.549C107.366 214.289 105.512 240.995 105.512 240.995C105.512 240.995 104.399 266.219 103.649 268.073C102.899 269.927 99.9233 308.127 98.0836 307.018C96.244 305.91 82.8772 307.018 82.8772 307.018C81.3915 305.532 82.8772 285.506 82.8772 285.506L85.4714 248.782C85.4714 248.782 83.9857 228.383 85.4714 224.671C86.9571 220.959 86.9571 196.112 86.9571 196.112L117.337 191.408L120.271 190.942L134.453 188.711Z" fill="#5F5D7E"/>
<path opacity="0.02" d="M133.484 191.789L128.245 208.421L128.119 208.747C127.416 208.905 112.568 212.319 109.364 213.367H109.042L117.337 191.408L117.575 190.774L120.271 190.946L133.484 191.789Z" fill="black"/>
<path opacity="0.1" d="M98.8427 114.528C98.8427 114.528 112.568 129.367 121.1 117.122L129.26 122.688L127.774 131.22L132.595 195.762C132.595 195.762 119.983 195.39 111.082 198.357C108.603 199.236 105.925 199.389 103.362 198.797C100.799 198.205 98.4591 196.894 96.6165 195.017L98.1022 138.267L94.7628 120.834L98.8427 114.528Z" fill="black"/>
<path d="M98.8428 113.415C98.8428 113.415 112.568 128.253 121.1 116.009L129.26 121.575L127.775 130.107L132.6 194.668C132.6 194.668 119.987 194.295 111.087 197.262C108.608 198.141 105.93 198.294 103.367 197.702C100.804 197.111 98.4638 195.799 96.6212 193.923L98.1069 137.172L94.7676 119.74L98.8428 113.415Z" fill="#53526B"/>
<path d="M126.238 179.494V181.827H126.987V180.272H129.712V181.827H130.462V179.499L126.238 179.494Z" fill="#E82127"/>
<path d="M126.908 178.739H129.786C129.975 178.694 130.148 178.598 130.286 178.462C130.423 178.326 130.521 178.154 130.569 177.966H126.13C126.178 178.154 126.276 178.325 126.414 178.462C126.552 178.598 126.724 178.694 126.913 178.739" fill="#E82127"/>
<path d="M123.974 181.827C124.137 181.764 124.282 181.662 124.397 181.529C124.511 181.397 124.592 181.239 124.631 181.068H121.273V177.966H120.518V181.827H123.969" fill="#E82127"/>
<path d="M114.929 178.725H117.589C117.778 178.678 117.952 178.583 118.096 178.451C118.239 178.318 118.346 178.151 118.408 177.966H114.17V180.23H117.626V181.031H114.915C114.708 181.086 114.516 181.184 114.349 181.319C114.183 181.454 114.048 181.622 113.951 181.813H118.362V179.485H114.911V178.721" fill="#E82127"/>
<path d="M108.367 178.735H111.245C111.434 178.69 111.607 178.594 111.745 178.457C111.882 178.321 111.98 178.15 112.028 177.962H107.589C107.637 178.149 107.735 178.321 107.873 178.457C108.011 178.593 108.183 178.689 108.372 178.735" fill="#E82127"/>
<path d="M108.367 180.258H111.245C111.434 180.213 111.607 180.117 111.745 179.981C111.883 179.845 111.981 179.673 112.028 179.485H107.589C107.637 179.672 107.735 179.844 107.873 179.98C108.011 180.116 108.183 180.212 108.372 180.258" fill="#E82127"/>
<path d="M108.367 181.827H111.245C111.434 181.782 111.607 181.686 111.745 181.55C111.882 181.414 111.98 181.242 112.028 181.054H107.589C107.637 181.242 107.735 181.413 107.873 181.549C108.011 181.686 108.183 181.782 108.372 181.827" fill="#E82127"/>
<path d="M100.883 177.971C100.932 178.157 101.03 178.326 101.167 178.461C101.303 178.597 101.474 178.693 101.66 178.739H102.871L102.932 178.763V181.818H103.686V178.763L103.756 178.739H104.967C105.153 178.691 105.323 178.595 105.459 178.46C105.596 178.325 105.695 178.156 105.745 177.971H100.883Z" fill="#E82127"/>
<path d="M115.726 170.333L119.503 149.081C123.103 149.081 124.239 149.477 124.407 151.089C124.407 151.089 126.824 150.19 128.04 148.359C125.032 147.009 121.799 146.227 118.506 146.054L115.712 149.449L112.917 146.054C109.624 146.227 106.392 147.009 103.384 148.359C104.599 150.19 107.016 151.089 107.016 151.089C107.179 149.477 108.316 149.081 111.893 149.077L115.702 170.333" fill="#E82127"/>
<path d="M115.726 145.071C120.107 145.017 124.451 145.888 128.473 147.628C128.77 147.129 129.024 146.605 129.232 146.063C120.57 142.554 110.882 142.554 102.219 146.063C102.442 146.601 102.7 147.124 102.992 147.628C107.014 145.888 111.358 145.017 115.74 145.071" fill="#E82127"/>
<path d="M127.407 190.192C127.407 190.192 127.407 199.837 129.633 203.917C131.859 207.997 144.839 205.78 144.839 205.78L142.245 192.055L127.407 190.192Z" fill="#D39999"/>
<path d="M143.428 212.45C141.472 214.313 133.363 210.587 133.922 208.37C134.313 206.8 135.683 201.183 136.46 197.998L137.001 195.757C137.001 195.757 141.751 194.272 143.428 195.757C144.038 196.298 144.467 198.426 144.667 200.997C145.011 205.463 144.671 211.271 143.428 212.45Z" fill="#FDC2CC"/>
<path d="M125.548 120.089L112.568 130.102C112.568 130.102 93.2818 128.989 98.1022 119.716C100.201 115.638 101.468 111.183 101.828 106.61C101.985 104.923 101.985 103.226 101.828 101.539C101.828 101.539 119.633 85.2377 117.407 103.765C117.232 105.187 117.129 106.617 117.1 108.05C116.853 121.957 125.548 120.089 125.548 120.089Z" fill="#FDC2CC"/>
<path opacity="0.1" d="M117.389 103.769C117.213 105.192 117.111 106.622 117.081 108.054C115.083 109.378 112.738 110.081 110.342 110.076C107.021 110.076 104.576 106.843 102.368 104.696C102.615 101.618 101.814 101.543 101.814 101.543C101.814 101.543 119.615 85.2191 117.389 103.769Z" fill="black"/>
<path d="M110.342 109.33C117.102 109.33 122.582 103.85 122.582 97.0907C122.582 90.3309 117.102 84.8511 110.342 84.8511C103.582 84.8511 98.1023 90.3309 98.1023 97.0907C98.1023 103.85 103.582 109.33 110.342 109.33Z" fill="#FDC2CC"/>
<path opacity="0.1" d="M101.628 108.776C101.628 108.776 99.5879 108.962 95.508 114.523C91.4282 120.084 82.4999 120.829 82.4999 120.829C82.4999 120.829 79.1606 119.344 75.4533 136.036C71.746 152.728 70.6329 163.854 72.4865 165.708C74.3402 167.562 81.7594 170.161 85.4667 170.161C85.4667 170.161 86.5798 193.527 84.7262 197.607C82.8725 201.687 85.0988 204.285 85.0988 204.285L101.4 203.172C101.4 203.172 106.965 196.126 108.078 183.886C109.191 171.646 112.899 136.776 111.045 132.697C109.191 128.617 101.032 118.231 101.4 117.118C101.768 116.004 101.628 108.776 101.628 108.776Z" fill="black"/>
<path d="M101.595 108.664C101.595 108.664 98.8521 108.59 94.7722 114.155C90.6923 119.721 81.792 120.462 81.792 120.462C81.792 120.462 78.4527 118.976 74.7454 135.668C71.0381 152.36 69.925 163.487 71.7879 165.326C73.6509 167.166 81.0608 169.779 84.7681 169.779C84.7681 169.779 85.8812 193.145 84.0276 197.225C82.1739 201.305 84.4002 203.903 84.4002 203.903L100.701 202.79C100.701 202.79 106.267 195.744 107.38 183.504C108.493 171.264 112.2 136.394 110.347 132.315C108.493 128.235 100.333 117.849 100.701 116.736C101.069 115.623 101.595 108.664 101.595 108.664Z" fill="#D39999"/>
<path d="M91.8147 156.44C91.8147 156.44 110.374 135.156 107.766 149.761C105.903 160.147 98.866 165.713 95.5266 166.826C92.1873 167.939 91.8147 156.44 91.8147 156.44Z" fill="#FDC2CC"/>
<path opacity="0.1" d="M144.667 200.997C142.892 199.642 139.544 197.532 136.461 197.998L137.001 195.757C137.001 195.757 141.751 194.272 143.428 195.757C144.043 196.298 144.467 198.426 144.667 200.997Z" fill="black"/>
<path opacity="0.1" d="M117.202 111.002C117.202 111.002 126.661 117.122 127.775 119.721C128.888 122.32 132.968 124.173 132.968 124.173C132.968 124.173 140.755 128.253 140.755 142.719L144.835 163.118L126.28 189.079C126.28 189.079 124.053 163.114 122.94 156.808C121.827 150.502 120.346 138.644 120.346 138.644C120.346 138.644 114.78 131.597 115.526 129.744C116.271 127.89 117.202 111.002 117.202 111.002Z" fill="black"/>
<path d="M117.17 110.891C117.17 110.891 127.034 116.382 128.142 118.976C129.251 121.57 133.34 123.41 133.34 123.41C133.34 123.41 141.127 127.49 141.127 141.955L145.207 162.355L145.948 201.3C145.948 201.3 139.269 194.994 134.449 197.961C129.628 200.927 126.661 188.315 126.661 188.315C126.661 188.315 124.435 162.35 123.322 156.044C122.209 149.738 120.728 137.88 120.728 137.88C120.728 137.88 115.162 130.862 115.907 128.999C116.653 127.136 117.17 110.891 117.17 110.891Z" fill="#D39999"/>
<path opacity="0.1" d="M121.087 82.2055C120.459 81.4066 119.732 80.69 118.925 80.0724C117.649 79.0105 116.238 77.9021 114.655 77.9952C113.759 78.1145 112.898 78.4225 112.13 78.8988C108.187 80.976 104.255 83.0749 100.333 85.1956C98.8847 85.978 97.3897 86.807 96.379 88.2136C95.3684 89.6201 94.9585 91.4272 94.6744 93.197C94.4367 94.3958 94.3802 95.6235 94.5068 96.8391C94.6222 98.0308 95.2009 99.1295 96.1182 99.899C97.1754 100.667 98.6239 100.672 99.5088 101.678C100.021 102.26 100.245 103.075 100.608 103.783C100.971 104.491 101.6 105.18 102.317 105.055C103.034 104.929 103.468 104.17 103.57 103.401C103.616 102.622 103.57 101.841 103.435 101.073C103.295 99.6754 103.472 98.1944 104.283 97.1558C104.842 96.4478 105.643 96.0194 106.183 95.2928C107.478 93.5416 106.886 90.6354 108.307 88.9913C108.719 88.5616 109.238 88.249 109.811 88.0853C110.384 87.9217 110.99 87.9129 111.567 88.0599C112.717 88.3021 113.77 88.9261 114.827 89.4571C116.255 90.1776 117.751 90.7548 119.293 91.1803C120.588 91.5343 122.088 92.3819 122.53 90.6587C123.206 88.1297 122.554 84.2594 121.087 82.2055Z" fill="black"/>
<path d="M120.714 81.833C120.086 81.0341 119.36 80.3174 118.553 79.6999C117.277 78.638 115.865 77.5295 114.282 77.6227C113.386 77.742 112.526 78.0499 111.758 78.5262C107.818 80.6034 104.543 78.638 99.9605 84.823C98.9824 86.1457 97.017 86.4345 96.0064 87.841C94.9957 89.2475 94.5858 91.0546 94.3017 92.8244C94.064 94.0232 94.0075 95.2509 94.1341 96.4665C94.2496 97.6582 94.8282 98.757 95.7455 99.5264C96.8028 100.295 98.2512 100.3 99.1361 101.306C99.6484 101.888 99.872 102.703 100.235 103.411C100.599 104.119 101.227 104.808 101.945 104.682C102.662 104.556 103.095 103.797 103.197 103.029C103.243 102.25 103.198 101.468 103.062 100.7C102.923 99.3028 103.1 97.8218 103.91 96.7832C104.469 96.0753 105.27 95.6468 105.81 94.9202C107.105 93.1691 106.513 90.2628 107.934 88.6188C108.346 88.189 108.865 87.8764 109.438 87.7128C110.011 87.5491 110.617 87.5403 111.194 87.6873C112.344 87.9295 113.397 88.5536 114.454 89.0845C115.883 89.805 117.379 90.3823 118.921 90.8078C120.215 91.1617 121.715 92.0094 122.158 90.2861C122.838 87.7572 122.204 83.8869 120.714 81.833Z" fill="#865A61"/>
<path d="M87.3437 136.781C87.3437 136.781 86.9711 150.506 85.1175 152.36C83.2638 154.214 86.2306 156.44 86.2306 156.44L93.6498 154.577C93.6498 154.577 91.7869 166.817 99.5833 165.335C99.5833 165.335 94.3903 170.156 89.1974 170.901C84.0044 171.646 84.363 169.793 84.363 169.793L76.5758 160.52L87.3437 136.781Z" fill="#D39999"/>
<path opacity="0.1" d="M87.2831 138.448C87.2831 138.448 82.3369 151.06 86.0489 156.253L94.2087 154.39C94.2087 154.39 86.7894 156.617 87.9025 152.164C89.0157 147.712 87.2831 138.448 87.2831 138.448Z" fill="black"/>
<path opacity="0.1" d="M84.5632 169.606C84.5632 169.606 95.3218 170.347 98.2886 168.121C94.3842 171.111 89.7704 173.037 84.8986 173.709L84.5632 169.606Z" fill="black"/>
<path opacity="0.1" d="M130.937 145.868C130.937 145.868 136.502 162.932 136.13 165.527C135.757 168.121 135.017 196.685 135.017 196.685L133.904 196.312L134.276 165.154L130.937 145.868Z" fill="black"/>
<path d="M365.26 194.123C365.26 194.123 373.41 210.121 366.769 218.872C360.127 227.623 367.374 251.474 367.374 251.474" stroke="#6C63FF" stroke-miterlimit="10"/>
<path d="M367.672 189.144C367.672 192.227 365.409 194.733 365.409 194.733C365.409 194.733 363.145 192.232 363.145 189.144C363.145 186.056 365.409 183.555 365.409 183.555C365.409 183.555 367.672 186.061 367.672 189.144Z" fill="#F50057"/>
<path d="M369.484 194.123C369.484 194.123 361.334 210.121 367.975 218.872C374.616 227.623 367.37 251.474 367.37 251.474" stroke="#6C63FF" stroke-miterlimit="10"/>
<path d="M367.067 189.144C367.067 192.227 369.33 194.733 369.33 194.733C369.33 194.733 371.594 192.232 371.594 189.144C371.594 186.056 369.33 183.555 369.33 183.555C369.33 183.555 367.067 186.061 367.067 189.144Z" fill="#F50057"/>
<path opacity="0.1" d="M367.067 189.144C367.067 192.227 369.33 194.733 369.33 194.733C369.33 194.733 371.594 192.232 371.594 189.144C371.594 186.056 369.33 183.555 369.33 183.555C369.33 183.555 367.067 186.061 367.067 189.144Z" fill="black"/>
<path d="M372.805 194.123C372.805 194.123 380.955 210.121 374.314 218.872C367.672 227.623 374.919 251.474 374.919 251.474" stroke="#6C63FF" stroke-miterlimit="10"/>
<path d="M375.217 189.144C375.217 192.227 372.954 194.733 372.954 194.733C372.954 194.733 370.69 192.232 370.69 189.144C370.69 186.056 372.954 183.555 372.954 183.555C372.954 183.555 375.217 186.061 375.217 189.144Z" fill="#F50057"/>
<path d="M373.95 201.961C371.813 204.183 368.445 204.416 368.445 204.416C368.445 204.416 368.548 201.044 370.686 198.827C372.823 196.61 376.191 196.372 376.191 196.372C376.191 196.372 376.088 199.74 373.95 201.961Z" fill="#F50057"/>
<path d="M374.16 212.999C372.022 215.221 368.655 215.454 368.655 215.454C368.655 215.454 368.757 212.082 370.895 209.865C373.033 207.648 376.382 207.406 376.382 207.406C376.382 207.406 376.298 210.773 374.16 212.999Z" fill="#F50057"/>
<path d="M362.568 219.068C364.589 221.397 364.519 224.769 364.519 224.769C364.519 224.769 361.171 224.363 359.149 222.035C357.128 219.706 357.198 216.334 357.198 216.334C357.198 216.334 360.546 216.739 362.568 219.068Z" fill="#F50057"/>
<path d="M364.445 195.534C367.016 197.239 367.849 200.508 367.849 200.508C367.849 200.508 364.51 201.011 361.944 199.325C359.377 197.639 358.539 194.351 358.539 194.351C358.539 194.351 361.874 193.829 364.445 195.534Z" fill="#F50057"/>
<path opacity="0.1" d="M364.445 195.534C367.016 197.239 367.849 200.508 367.849 200.508C367.849 200.508 364.51 201.011 361.944 199.325C359.377 197.639 358.539 194.351 358.539 194.351C358.539 194.351 361.874 193.829 364.445 195.534Z" fill="black"/>
<path d="M377.029 194.123C377.029 194.123 368.879 210.121 375.52 218.872C382.161 227.623 374.915 251.474 374.915 251.474" stroke="#6C63FF" stroke-miterlimit="10"/>
<path d="M374.616 189.144C374.616 192.227 376.88 194.733 376.88 194.733C376.88 194.733 379.143 192.232 379.143 189.144C379.143 186.056 376.88 183.555 376.88 183.555C376.88 183.555 374.616 186.061 374.616 189.144Z" fill="#F50057"/>
<path opacity="0.1" d="M374.616 189.144C374.616 192.227 376.88 194.733 376.88 194.733C376.88 194.733 379.143 192.232 379.143 189.144C379.143 186.056 376.88 183.555 376.88 183.555C376.88 183.555 374.616 186.061 374.616 189.144Z" fill="black"/>
<path d="M375.268 202.199C373.103 204.397 372.94 207.788 372.94 207.788C372.94 207.788 376.307 207.597 378.473 205.398C380.638 203.2 380.801 199.81 380.801 199.81C380.801 199.81 377.429 200.001 375.268 202.199Z" fill="#F50057"/>
<path opacity="0.1" d="M375.268 202.199C373.103 204.397 372.94 207.788 372.94 207.788C372.94 207.788 376.307 207.597 378.473 205.398C380.638 203.2 380.801 199.81 380.801 199.81C380.801 199.81 377.429 200.001 375.268 202.199Z" fill="black"/>
<path d="M379.511 217.489C377.346 219.687 377.183 223.078 377.183 223.078C377.183 223.078 380.55 222.887 382.716 220.689C384.881 218.49 385.044 215.1 385.044 215.1C385.044 215.1 381.677 215.281 379.511 217.489Z" fill="#F50057"/>
<path d="M373.266 214.122C373.266 214.122 378.17 206.39 385.058 206.204" stroke="#6C63FF" stroke-miterlimit="10"/>
<path d="M369.447 209.45C369.447 209.45 364.542 201.719 357.654 201.533" stroke="#6C63FF" stroke-miterlimit="10"/>
<path d="M368.809 220.488C368.809 220.488 373.713 212.757 380.601 212.571" stroke="#6C63FF" stroke-miterlimit="10"/>
<path d="M384.83 207.434C385.532 207.434 386.102 206.864 386.102 206.162C386.102 205.46 385.532 204.891 384.83 204.891C384.128 204.891 383.559 205.46 383.559 206.162C383.559 206.864 384.128 207.434 384.83 207.434Z" fill="#F50057"/>
<path d="M357.771 202.869C358.473 202.869 359.042 202.3 359.042 201.598C359.042 200.896 358.473 200.326 357.771 200.326C357.068 200.326 356.499 200.896 356.499 201.598C356.499 202.3 357.068 202.869 357.771 202.869Z" fill="#F50057"/>
<path d="M372.418 223.036C372.418 223.036 367.514 215.305 360.626 215.118" stroke="#6C63FF" stroke-miterlimit="10"/>
<path d="M360.742 216.455C361.444 216.455 362.014 215.886 362.014 215.184C362.014 214.481 361.444 213.912 360.742 213.912C360.04 213.912 359.471 214.481 359.471 215.184C359.471 215.886 360.04 216.455 360.742 216.455Z" fill="#F50057"/>
<path d="M380.694 213.907C381.397 213.907 381.966 213.338 381.966 212.636C381.966 211.934 381.397 211.365 380.694 211.365C379.992 211.365 379.423 211.934 379.423 212.636C379.423 213.338 379.992 213.907 380.694 213.907Z" fill="#F50057"/>
<path d="M399.533 242.173C399.533 242.173 387.713 239.807 384.56 236.654C381.407 233.501 367.22 228.001 365.646 231.927C364.072 235.853 344.367 249.28 357.752 251.642C371.137 254.003 389.278 254.795 393.218 253.216C397.158 251.637 399.533 242.173 399.533 242.173Z" fill="#A8A8A8"/>
<path opacity="0.2" d="M357.752 250.179C371.151 252.545 389.278 253.332 393.218 251.753C396.217 250.552 398.304 244.767 399.128 242.103L399.524 242.187C399.524 242.187 397.158 251.646 393.218 253.22C389.278 254.795 371.151 254.008 357.752 251.646C353.886 250.962 352.778 249.36 353.197 247.334C353.537 248.652 354.883 249.672 357.752 250.179Z" fill="black"/>
<path d="M52.8183 281.603C52.8183 281.603 56.7212 286.726 51.0159 294.411C45.3106 302.095 40.6066 308.62 42.5115 313.431C42.5115 313.431 51.1184 299.119 58.1231 298.919C65.1278 298.719 60.5217 290.21 52.8183 281.603Z" fill="#F50057"/>
<path opacity="0.1" d="M52.8184 281.603C53.1585 282.096 53.4267 282.636 53.6148 283.205C60.4519 291.234 64.0893 298.728 57.5224 298.919C51.4025 299.096 44.0625 310.036 42.302 312.803C42.3601 313.016 42.4301 313.226 42.5116 313.431C42.5116 313.431 51.1185 299.119 58.1232 298.919C65.1279 298.719 60.5217 290.21 52.8184 281.603Z" fill="black"/>
<path d="M60.0745 288.104C60.0745 289.902 59.8743 291.365 59.6088 291.365C59.3433 291.365 59.1431 289.907 59.1431 288.104C59.1431 286.302 59.3946 287.173 59.6414 287.173C59.8882 287.173 60.0745 286.311 60.0745 288.104Z" fill="#FFD037"/>
<path d="M62.5617 290.252C60.9828 291.113 59.6089 291.649 59.4924 291.411C59.376 291.174 60.5543 290.317 62.1332 289.46C63.712 288.603 63.0879 289.227 63.209 289.46C63.3301 289.693 64.1405 289.39 62.5617 290.252Z" fill="#FFD037"/>
<path d="M32.2001 281.603C32.2001 281.603 28.2972 286.726 34.0025 294.411C39.7078 302.095 44.4118 308.62 42.5069 313.427C42.5069 313.427 33.9 299.115 26.8953 298.914C19.8906 298.714 24.4968 290.21 32.2001 281.603Z" fill="#F50057"/>
<path opacity="0.1" d="M32.2001 281.603C31.86 282.096 31.5918 282.636 31.4037 283.205C24.5666 291.234 20.9292 298.728 27.4961 298.919C33.6159 299.096 40.956 310.036 42.7165 312.803C42.6584 313.016 42.5884 313.226 42.5069 313.431C42.5069 313.431 33.9 299.119 26.8953 298.919C19.8906 298.719 24.4968 290.21 32.2001 281.603Z" fill="black"/>
<path d="M24.9438 288.104C24.9438 289.902 25.1441 291.365 25.4096 291.365C25.6751 291.365 25.8753 289.907 25.8753 288.104C25.8753 286.302 25.6238 287.173 25.377 287.173C25.1301 287.173 24.9438 286.311 24.9438 288.104Z" fill="#FFD037"/>
<path d="M22.4569 290.252C24.0357 291.113 25.4096 291.649 25.5261 291.411C25.6425 291.174 24.4642 290.317 22.8853 289.46C21.3065 288.603 21.9306 289.227 21.8095 289.46C21.6884 289.693 20.878 289.39 22.4569 290.252Z" fill="#FFD037"/>
<path d="M26.1874 312.756C26.1874 312.756 37.0997 312.421 40.3878 310.078C43.6759 307.735 57.1544 304.955 57.9881 308.681C58.8217 312.407 74.3868 327.362 62.068 327.459C49.7491 327.557 33.4436 325.541 30.1601 323.543C26.8767 321.544 26.1874 312.756 26.1874 312.756Z" fill="#A8A8A8"/>
<path opacity="0.2" d="M62.2915 326.169C49.9727 326.267 33.6671 324.251 30.3837 322.253C27.8827 320.73 26.886 315.266 26.5553 312.747H26.192C26.192 312.747 26.8813 321.549 30.1648 323.547C33.4482 325.545 49.7538 327.567 62.0726 327.464C65.6308 327.436 66.8557 326.169 66.7905 324.297C66.2922 325.443 64.9369 326.146 62.2915 326.169Z" fill="black"/>
</g>
<defs>
<linearGradient id="paint0_linear_11_63" x1="236.026" y1="278.715" x2="236.026" y2="113.573" gradientUnits="userSpaceOnUse">
<stop stop-color="#808080" stop-opacity="0.25"/>
<stop offset="0.54" stop-color="#808080" stop-opacity="0.12"/>
<stop offset="1" stop-color="#808080" stop-opacity="0.1"/>
</linearGradient>
<linearGradient id="paint1_linear_11_63" x1="271.566" y1="236.84" x2="303.458" y2="118.396" gradientUnits="userSpaceOnUse">
<stop stop-color="#808080" stop-opacity="0.25"/>
<stop offset="0.54" stop-color="#808080" stop-opacity="0.12"/>
<stop offset="1" stop-color="#808080" stop-opacity="0.1"/>
</linearGradient>
<linearGradient id="paint2_linear_11_63" x1="108.418" y1="333.151" x2="108.418" y2="72.7977" gradientUnits="userSpaceOnUse">
<stop stop-color="#808080" stop-opacity="0.25"/>
<stop offset="0.54" stop-color="#808080" stop-opacity="0.12"/>
<stop offset="1" stop-color="#808080" stop-opacity="0.1"/>
</linearGradient>
<clipPath id="clip0_11_63">
<rect width="476.959" height="365.596" fill="white" transform="translate(0.0407715 0.691895)"/>
</clipPath>
</defs>
</svg>
